<mxfile host="app.diagrams.net" modified="2024-02-28T15:48:14.009Z" agent="Mozilla/5.0 (Windows NT 10.0; Win64; x64) AppleWebKit/537.36 (KHTML, like Gecko) Chrome/120.0.0.0 Safari/537.36 Edg/120.0.0.0" version="23.1.7" etag="RrLM8azpcEl43twoR_u_" type="github">
  <diagram name="Seite-1" id="357CAihyjq-8belEYn3w">
    <mxGraphModel>
      <root>
        <mxCell id="0" />
        <mxCell id="1" parent="0" />
        <mxCell id="2" value="Start" style="ellipse;aspect=fixed;strokeWidth=2;whiteSpace=wrap;" vertex="1" parent="1">
          <mxGeometry x="49" width="50" height="50" as="geometry" />
        </mxCell>
        <mxCell id="3" value="muzero pqc design" style="whiteSpace=wrap;strokeWidth=2;" vertex="1" parent="1">
          <mxGeometry y="100" width="149" height="33" as="geometry" />
        </mxCell>
        <mxCell id="4" value="" style="curved=1;startArrow=none;endArrow=block;exitX=0.51;exitY=1.0012812805175781;entryX=0.5;entryY=0.0019413341175426137;" edge="1" parent="1" source="2" target="3">
          <mxGeometry relative="1" as="geometry">
            <Array as="points" />
          </mxGeometry>
        </mxCell>
      </root>
    </mxGraphModel>
  </diagram>
</mxfile>
